<svg xmlns="http://www.w3.org/2000/svg" viewBox="0 0 20 20"><defs><style>.cls-1{fill:#333;}</style></defs><g id="Rectangle"><rect class="cls-1" x="6" y="1" width="1" height="18"></rect></g><g id="Rectangle-2" data-name="Rectangle"><path class="cls-1" d="M10,5a1,1,0,1,1,1-1A1,1,0,0,1,10,5Zm0-1.5V4h0Z"></path></g><g id="Rectangle-Copy-6"><path class="cls-1" d="M10,8a1,1,0,1,1,1-1A1,1,0,0,1,10,8Zm0-1.5V7h0Z"></path></g><g id="Rectangle-Copy-7"><path class="cls-1" d="M10,11a1,1,0,1,1,1-1A1,1,0,0,1,10,11Zm0-1.5V10h0Z"></path></g><path class="cls-1" d="M16.5,19H14V1h2.5a.5.5,0,0,0,0-1H3.5a.5.5,0,0,0,0,1H13v9.5A2.79,2.79,0,0,1,10,13a2.79,2.79,0,0,1-3-2.5H6A3.78,3.78,0,0,0,10,14a4.23,4.23,0,0,0,3-1.21V19H3.5a.5.5,0,0,0,0,1h13a.5.5,0,0,0,0-1Z"></path></svg>