<svg xmlns="http://www.w3.org/2000/svg" viewBox="0 0 20 20"><defs><style>.cls-1{fill:#333;}</style></defs><path id="Fill-18-Copy" class="cls-1" d="M19.5,6a.5.5,0,0,0-.5.5v3a.5.5,0,0,0,1,0v-3a.5.5,0,0,0-.5-.5"></path><path class="cls-1" d="M14,1H8A5,5,0,0,0,3,5.63,4,4,0,0,1,4,5.5h.05A4,4,0,0,1,8,2h6a4,4,0,0,1,4,4v8a4,4,0,0,1-4,4H10.62A4,4,0,0,1,8,19h6a5,5,0,0,0,5-5V6A5,5,0,0,0,14,1Z"></path><path class="cls-1" d="M8,18H5a5,5,0,0,0,3,1H8a4,4,0,0,0,2.62-1Z"></path><path id="Fill-27" class="cls-1" d="M12.5,9a.5.5,0,0,0-.5.5v3a.5.5,0,0,0,1,0v-3a.5.5,0,0,0-.5-.5"></path><path id="Rectangle-Copy-10" class="cls-1" d="M8.25,6.5A2.75,2.75,0,0,1,11,9.25v6A2.75,2.75,0,0,1,8.25,18H3.75A2.75,2.75,0,0,1,1,15.25v-6A2.75,2.75,0,0,1,3.75,6.5h4.5m0-1H3.75A3.75,3.75,0,0,0,0,9.25v6A3.75,3.75,0,0,0,3.75,19h4.5A3.75,3.75,0,0,0,12,15.25v-6A3.75,3.75,0,0,0,8.25,5.5Z"></path></svg>